<?xml version="1.0" standalone="no"?>
<!DOCTYPE svg PUBLIC "-//W3C//DTD SVG 20010904//EN"
 "http://www.w3.org/TR/2001/REC-SVG-20010904/DTD/svg10.dtd">
<svg version="1.0" xmlns="http://www.w3.org/2000/svg"
 width="1134.000000pt" height="1199.000000pt" viewBox="0 0 1134.000000 1199.000000"
 preserveAspectRatio="xMidYMid meet">

<g transform="translate(0.000000,1199.000000) scale(0.100000,-0.100000)"
fill="#000000" stroke="none">
<path d="M5745 11559 c-44 -4 -145 -13 -225 -19 -254 -20 -410 -42 -650 -91
-25 -5 -67 -13 -95 -18 -48 -9 -213 -52 -245 -63 -16 -6 -174 -54 -230 -71
-19 -5 -48 -16 -65 -22 -16 -7 -48 -18 -70 -25 -22 -6 -59 -20 -82 -31 -24
-10 -46 -19 -50 -19 -25 0 -312 -126 -463 -203 -230 -118 -357 -191 -560 -325
-319 -212 -526 -380 -813 -660 -149 -146 -260 -266 -377 -407 -41 -49 -77 -92
-80 -95 -13 -12 -165 -223 -235 -326 -22 -32 -43 -61 -46 -64 -10 -9 -189
-310 -246 -415 -112 -204 -287 -605 -351 -805 -47 -145 -92 -295 -92 -307 0
-7 -4 -21 -9 -31 -10 -21 -48 -173 -67 -267 -8 -38 -18 -90 -24 -115 -5 -25
-17 -92 -25 -150 -9 -58 -20 -121 -25 -140 -9 -35 -18 -121 -43 -395 -35 -403
6 -968 103 -1420 6 -27 15 -70 20 -95 4 -25 16 -70 24 -100 9 -30 21 -73 26
-95 5 -22 20 -80 35 -130 14 -49 35 -119 45 -155 20 -70 57 -172 83 -234 9
-21 17 -42 17 -46 0 -8 14 -41 77 -185 20 -44 44 -100 55 -125 205 -466 548
-1000 883 -1375 209 -234 473 -485 711 -674 313 -251 783 -542 1104 -686 103
-45 221 -95 275 -115 28 -10 82 -31 120 -45 259 -99 575 -184 850 -231 49 -8
119 -21 155 -29 36 -7 121 -19 190 -25 69 -7 151 -16 183 -21 169 -29 753 -28
947 0 36 6 110 15 165 21 98 11 347 53 415 70 19 5 112 27 205 49 94 22 197
49 229 61 33 11 69 20 82 20 13 0 25 4 28 9 3 5 16 11 28 14 25 5 190 63 223
77 11 5 79 32 150 61 146 58 389 177 552 270 59 34 124 70 143 81 19 11 42 26
51 34 8 8 19 14 23 14 4 0 33 17 64 38 32 21 86 58 122 82 36 24 93 64 127 89
34 25 74 55 89 66 90 65 377 307 491 414 233 218 525 558 730 851 76 109 243
366 243 374 0 3 26 49 58 103 86 147 212 410 291 608 29 72 56 139 61 150 5
11 16 45 26 75 9 30 20 60 23 65 4 6 13 35 20 65 8 30 17 60 21 65 4 6 17 46
29 90 12 44 33 121 47 170 14 50 29 110 34 135 6 25 14 63 19 85 33 145 41
187 47 243 4 34 11 65 15 68 12 7 12 1650 0 1672 -6 9 -17 64 -26 121 -9 57
-21 111 -25 120 -5 9 -16 50 -24 91 -14 73 -33 143 -82 305 -13 44 -24 87 -24
96 0 8 -4 19 -9 25 -4 5 -16 40 -26 77 -10 37 -22 70 -27 73 -4 3 -8 16 -8 29
0 13 -4 27 -10 30 -5 3 -10 14 -10 23 0 9 -11 40 -25 67 -13 28 -25 60 -25 73
0 12 -4 22 -8 22 -4 0 -16 24 -27 53 -10 28 -27 67 -37 85 -10 18 -18 39 -18
48 0 8 -11 32 -25 54 -14 22 -25 43 -25 47 0 8 -142 295 -150 303 -8 8 -28 42
-47 80 -9 19 -22 40 -28 47 -30 36 -35 43 -35 52 0 5 -7 11 -15 15 -8 3 -14 9
-13 13 2 5 -9 22 -25 38 -15 17 -25 36 -22 43 2 6 -1 12 -8 12 -7 0 -32 29
-57 64 -168 240 -216 304 -310 411 -19 22 -48 58 -65 79 -35 45 -42 53 -183
206 -59 63 -154 162 -212 220 -58 58 -134 139 -170 180 -64 74 -77 87 -122
124 -12 11 -39 33 -59 50 -20 17 -44 38 -55 46 -120 94 -163 127 -251 188 -56
40 -107 72 -112 72 -6 0 -11 5 -11 10 0 6 -4 10 -10 10 -5 0 -32 16 -59 35
-26 19 -52 35 -56 35 -4 0 -21 10 -38 23 -18 12 -48 31 -67 41 -19 11 -66 36
-105 57 -38 22 -151 79 -250 128 -157 77 -225 108 -310 141 -11 4 -31 12 -45
18 -14 6 -47 18 -75 28 -27 9 -54 21 -59 26 -6 4 -20 8 -32 8 -13 0 -26 5 -29
10 -3 6 -16 10 -29 10 -12 0 -26 4 -32 9 -5 5 -36 16 -69 26 -33 10 -64 22
-69 27 -6 4 -19 8 -30 8 -25 0 -132 33 -142 43 -4 4 -19 7 -32 7 -14 0 -39 4
-56 9 -48 15 -145 38 -211 51 -33 7 -71 16 -85 20 -14 5 -61 14 -105 21 -44 6
-105 16 -135 20 -85 14 -210 27 -375 39 -82 6 -197 15 -255 20 -119 11 -297
11 -415 -1z m655 -564 c314 -30 506 -63 800 -140 256 -66 501 -148 646 -215
36 -16 67 -30 69 -30 8 0 138 -61 230 -107 81 -41 139 -72 230 -123 62 -35
191 -114 220 -135 17 -12 37 -25 45 -28 8 -3 53 -32 100 -65 47 -34 109 -78
139 -99 70 -49 225 -164 231 -172 3 -3 23 -20 45 -36 44 -33 62 -47 108 -87
18 -15 40 -28 49 -28 9 0 20 -5 23 -10 4 -6 14 -8 23 -6 10 4 31 -6 51 -23 51
-43 116 -73 145 -65 20 5 25 2 28 -17 2 -16 13 -25 36 -31 30 -8 36 -16 33
-44 -1 -7 8 -14 19 -17 12 -3 20 -13 20 -26 0 -12 6 -21 15 -21 8 0 21 -15 29
-34 8 -19 23 -37 35 -41 12 -3 18 -12 14 -20 -3 -9 4 -18 21 -25 14 -5 26 -15
26 -23 0 -7 18 -50 40 -95 22 -44 40 -86 40 -92 0 -6 10 -30 23 -53 31 -57 67
-154 67 -182 0 -12 7 -28 15 -35 8 -7 15 -17 15 -22 0 -6 15 -36 34 -67 58
-97 296 -560 296 -575 0 -3 13 -33 29 -68 44 -96 143 -361 195 -524 98 -305
179 -740 206 -1103 13 -175 13 -546 0 -686 -17 -175 -40 -363 -56 -455 -8 -47
-19 -107 -24 -135 -4 -27 -18 -90 -30 -140 -12 -49 -28 -118 -36 -152 -8 -34
-23 -88 -34 -120 -11 -32 -20 -67 -20 -78 0 -12 -4 -25 -9 -30 -5 -6 -16 -35
-25 -65 -10 -30 -22 -65 -27 -77 -11 -28 -21 -54 -44 -113 -9 -25 -21 -53 -26
-62 -5 -10 -9 -27 -9 -38 0 -11 -4 -20 -8 -20 -5 0 -16 -19 -26 -42 -10 -24
-38 -82 -62 -130 -24 -47 -44 -96 -44 -107 0 -12 -3 -21 -7 -21 -8 0 -30 -34
-71 -110 -13 -25 -30 -50 -38 -56 -8 -6 -14 -18 -14 -27 0 -9 -4 -19 -10 -22
-5 -3 -10 -12 -10 -20 0 -8 -11 -26 -25 -41 -14 -15 -25 -30 -25 -35 0 -4 -34
-58 -75 -119 -41 -61 -75 -115 -75 -121 0 -5 -4 -9 -9 -9 -5 0 -11 -10 -15
-22 -3 -13 -18 -37 -33 -54 -15 -17 -36 -44 -45 -60 -20 -35 -38 -42 -38 -15
0 13 -6 21 -16 21 -15 0 -15 -2 0 -25 22 -33 20 -44 -9 -67 -14 -11 -25 -26
-25 -34 0 -17 -37 -19 -43 -1 -2 7 -8 8 -13 3 -5 -5 -4 -11 4 -13 25 -9 11
-37 -49 -94 -33 -32 -58 -62 -55 -67 2 -4 1 -14 -4 -21 -6 -10 -9 -8 -15 8 -3
11 -11 21 -16 21 -5 0 -9 4 -9 9 0 14 45 61 59 61 14 0 14 11 -1 60 -7 22 -17
40 -23 40 -14 0 -65 -55 -65 -70 0 -6 -11 -3 -26 9 -27 21 -46 19 -79 -9 -42
-36 -45 -34 -43 19 2 46 4 50 23 45 18 -6 19 -5 5 11 -14 17 -13 18 3 12 22
-8 47 1 47 19 0 7 11 25 25 40 14 15 25 35 25 46 0 27 34 60 53 52 13 -5 17 0
17 16 0 12 14 34 31 49 22 19 32 39 36 69 3 24 2 42 -4 42 -11 0 -38 -50 -51
-95 -6 -20 -16 -31 -30 -33 -27 -4 -28 15 -2 48 11 14 20 39 19 55 0 24 -2 27
-9 14 -5 -9 -23 -31 -39 -48 -16 -17 -32 -45 -36 -61 -4 -17 -11 -30 -17 -30
-14 0 -77 -66 -158 -165 -96 -118 -267 -295 -405 -416 -27 -24 -54 -49 -60
-55 -5 -7 -36 -33 -68 -58 -67 -55 -89 -72 -131 -107 -17 -14 -62 -47 -101
-74 -38 -26 -80 -57 -93 -68 -12 -12 -38 -30 -56 -41 -19 -12 -67 -43 -108
-71 -40 -27 -77 -52 -83 -54 -5 -2 -17 -9 -25 -16 -8 -7 -51 -32 -95 -55 -44
-24 -107 -60 -140 -80 -61 -37 -238 -122 -330 -158 -28 -11 -72 -32 -97 -46
-26 -14 -54 -26 -63 -26 -8 0 -23 -4 -33 -10 -9 -5 -51 -19 -92 -31 -41 -12
-89 -28 -107 -35 -17 -8 -40 -14 -51 -14 -12 0 -24 -4 -27 -10 -3 -5 -17 -10
-31 -10 -13 0 -32 -4 -42 -9 -34 -16 -120 -41 -145 -41 -14 0 -29 -4 -32 -10
-3 -5 -24 -10 -46 -10 -40 0 -53 -14 -21 -25 11 -3 50 -1 87 4 38 6 73 7 79 3
13 -7 -26 -20 -67 -21 -16 -1 -36 -8 -44 -17 -11 -11 -30 -15 -59 -12 -32 2
-45 -1 -53 -15 -15 -22 -4 -41 18 -31 9 3 42 8 73 9 32 2 76 6 99 10 39 7 40
6 30 -14 -8 -14 -21 -21 -42 -21 -16 0 -47 -9 -67 -19 -39 -20 -125 -44 -154
-43 -9 0 -22 -6 -29 -14 -6 -8 -27 -14 -46 -14 -19 0 -58 -10 -86 -22 l-52
-23 50 -10 c43 -10 50 -14 50 -36 1 -26 -3 -26 129 -17 50 3 77 -16 39 -28
-10 -3 -26 -10 -35 -15 -10 -5 -48 -9 -85 -9 -38 0 -86 -5 -108 -11 -137 -35
-383 -50 -705 -42 -129 3 -237 7 -240 10 -5 5 -6 10 -9 36 -2 20 -33 16 -39
-5 -6 -24 -23 -23 -29 2 -4 16 -13 20 -37 19 -17 -1 -66 4 -109 11 -50 7 -83
8 -90 2 -17 -14 -105 -20 -101 -7 3 6 -19 9 -57 7 -43 -3 -59 -1 -55 7 4 6 18
11 32 11 14 0 22 4 19 10 -8 13 -41 13 -81 -2 -24 -8 -44 -8 -85 1 -30 7 -71
15 -92 18 -20 3 -40 9 -43 14 -3 5 -15 9 -26 9 -12 0 -35 4 -52 9 -17 5 -60
17 -96 27 -36 9 -90 25 -121 35 -30 11 -64 19 -75 19 -11 0 -24 4 -29 9 -11
10 -137 61 -151 61 -6 0 -34 11 -62 25 -29 14 -56 25 -62 25 -6 0 -18 4 -28 9
-9 5 -42 20 -72 33 -190 86 -550 276 -595 315 -5 5 -35 23 -65 41 -31 17 -67
41 -80 52 -13 12 -40 31 -60 43 -19 12 -39 25 -45 29 -62 48 -137 103 -166
123 -55 36 -151 116 -172 142 -10 13 -22 23 -27 23 -5 0 -26 15 -46 34 -21 19
-43 32 -51 29 -9 -4 -11 0 -7 11 5 12 2 15 -12 9 -14 -5 -16 -3 -11 11 5 13 3
17 -7 13 -8 -3 -16 2 -19 14 -3 10 -13 22 -22 25 -10 4 -37 27 -62 51 -25 23
-49 43 -55 43 -6 0 -7 7 -4 16 3 8 2 12 -4 9 -15 -9 -43 23 -36 41 5 12 1 14
-16 8 -17 -5 -20 -3 -14 11 5 13 2 16 -10 11 -12 -4 -14 -1 -9 14 5 16 3 19
-11 13 -14 -5 -16 -3 -11 11 5 14 3 17 -8 12 -10 -3 -15 1 -15 12 0 9 -10 22
-22 27 -15 6 -23 18 -22 33 0 12 -5 22 -13 22 -7 0 -13 7 -13 15 0 9 -6 12
-15 9 -11 -5 -13 -2 -8 12 5 13 3 16 -9 12 -10 -4 -15 -1 -14 10 0 9 -5 16
-11 14 -7 -1 -13 2 -13 7 0 5 -22 33 -50 63 -27 29 -50 61 -50 71 0 9 -4 17
-9 17 -5 0 -11 10 -14 23 -4 12 -24 41 -47 64 -22 23 -40 46 -40 52 0 5 -6 11
-14 14 -9 4 -12 14 -9 27 4 16 2 19 -11 14 -12 -4 -16 0 -16 15 0 12 -4 21
-10 21 -5 0 -10 7 -10 16 0 11 -5 14 -16 10 -13 -5 -15 -1 -10 19 5 20 1 27
-24 40 -19 10 -27 20 -23 30 3 10 0 15 -8 13 -9 -2 -14 5 -13 18 0 14 -4 20
-13 17 -8 -3 -13 2 -13 15 0 11 -7 23 -16 26 -9 3 -14 13 -11 20 3 8 -1 17 -9
20 -9 3 -14 14 -12 23 2 10 -7 28 -19 42 -13 13 -23 30 -23 38 0 18 -22 56
-38 66 -6 4 -12 17 -12 27 0 10 -4 22 -10 25 -5 3 -10 15 -10 26 0 11 -7 19
-16 19 -11 0 -14 6 -9 22 6 17 4 20 -9 15 -11 -5 -16 -1 -16 14 0 11 -6 27
-14 35 -8 7 -12 23 -9 34 3 11 0 20 -6 20 -6 0 -11 11 -11 25 0 14 -4 25 -10
25 -5 0 -10 8 -10 18 0 9 -7 26 -15 36 -8 11 -15 28 -15 38 0 10 -4 18 -10 18
-5 0 -10 12 -10 26 0 20 -4 25 -16 20 -13 -5 -16 0 -12 29 3 26 1 34 -9 31 -9
-4 -13 4 -13 24 0 21 -5 30 -16 30 -13 0 -15 7 -10 35 6 29 4 34 -9 29 -12 -5
-15 1 -15 29 0 20 -5 39 -10 42 -6 3 -10 22 -10 40 0 27 -3 33 -15 28 -13 -4
-15 1 -9 37 6 37 5 42 -9 37 -13 -5 -15 0 -10 27 3 22 0 36 -11 45 -10 9 -16
30 -17 60 0 38 -2 42 -9 24 -15 -38 -21 -26 -14 27 6 45 5 50 -11 44 -15 -6
-17 0 -13 52 2 43 0 58 -10 56 -8 -1 -12 15 -13 55 0 32 -3 52 -6 46 -2 -7 -9
-13 -14 -13 -5 0 -6 30 -2 73 6 65 5 71 -10 59 -14 -12 -15 -7 -14 43 1 33 -4
59 -10 63 -12 7 -17 80 -27 352 -2 74 -9 146 -14 160 -10 26 -6 574 4 600 6
15 22 188 31 340 2 47 9 90 15 97 6 7 7 55 2 127 -5 81 -3 116 4 116 6 0 13
-19 15 -42 2 -24 2 -4 0 43 -3 47 -1 95 5 105 13 25 33 99 39 147 3 20 9 40
14 43 5 3 9 20 9 39 0 19 5 37 10 40 6 3 10 14 10 23 0 9 7 30 15 46 8 15 15
39 15 52 0 12 5 26 10 29 5 3 10 19 10 35 0 16 4 32 10 35 5 3 10 15 10 26 0
10 4 27 9 37 5 9 17 40 26 67 22 65 28 80 59 143 14 30 26 62 26 73 0 10 5 19
10 19 6 0 10 7 10 15 0 8 11 36 24 63 13 26 57 115 97 197 41 83 88 173 106
202 18 29 33 55 33 58 0 3 30 52 67 108 38 56 70 106 72 112 2 5 8 14 13 20 5
5 39 55 77 111 79 116 204 273 342 429 105 119 345 356 424 420 28 21 52 42
55 45 6 6 118 99 177 145 205 164 569 389 834 518 171 82 415 187 509 217 169
55 206 66 395 114 293 75 560 118 865 139 145 10 582 5 720 -8z m-5143 -4082
c-2 -16 -4 -5 -4 22 0 28 2 40 4 28 2 -13 2 -35 0 -50z m-30 -175 c-2 -13 -4
-3 -4 22 0 25 2 35 4 23 2 -13 2 -33 0 -45z m-20 -225 c-2 -32 -3 -8 -3 52 0
61 1 87 3 58 2 -29 2 -78 0 -110z m-20 -470 c-2 -32 -3 -8 -3 52 0 61 1 87 3
58 2 -29 2 -78 0 -110z m24 -360 c-7 -31 -9 -22 -9 52 0 85 1 87 9 38 5 -30 5
-69 0 -90z m8296 -2299 c-3 -3 -12 -4 -19 -1 -8 3 -5 6 6 6 11 1 17 -2 13 -5z
m-32 -34 c-5 -8 -11 -8 -17 -2 -6 6 -7 16 -3 22 5 8 11 8 17 2 6 -6 7 -16 3
-22z m-32 -38 c11 -12 13 -22 6 -32 -7 -12 -10 -11 -15 8 -4 12 -10 22 -15 22
-5 0 -9 5 -9 10 0 15 15 12 33 -8z m127 -202 c0 -5 -4 -10 -10 -10 -5 0 -10 5
-10 10 0 6 5 10 10 10 6 0 10 -4 10 -10z m-10 -70 c0 -5 -4 -10 -10 -10 -5 0
-10 5 -10 10 0 6 5 10 10 10 6 0 10 -4 10 -10z m-20 -85 c0 -8 -2 -15 -4 -15
-2 0 -6 7 -10 15 -3 8 -1 15 4 15 6 0 10 -7 10 -15z m-1703 -921 c-3 -3 -12
-4 -19 -1 -8 3 -5 6 6 6 11 1 17 -2 13 -5z m-354 -141 c-7 -2 -19 -2 -25 0 -7
3 -2 5 12 5 14 0 19 -2 13 -5z m-175 -70 c-16 -2 -28 -8 -28 -12 0 -14 -140
-49 -220 -56 l-45 -4 35 11 c19 5 49 17 67 24 17 8 39 14 50 14 10 1 41 7 68
15 28 7 61 13 75 13 23 -1 23 -1 -2 -5z m269 1 c-3 -3 -12 -4 -19 -1 -8 3 -5
6 6 6 11 1 17 -2 13 -5z m-234 -71 c-7 -2 -19 -2 -25 0 -7 3 -2 5 12 5 14 0
19 -2 13 -5z m-58 -23 c-3 -5 -14 -10 -24 -10 -10 0 -21 -3 -24 -6 -10 -10
-109 -43 -129 -44 -10 0 -18 -4 -18 -9 0 -5 -9 -7 -20 -4 -11 3 -20 11 -20 18
0 18 46 36 130 50 96 17 113 17 105 5z m-162 -187 c-7 -2 -19 -2 -25 0 -7 3
-2 5 12 5 14 0 19 -2 13 -5z m187 -8 c0 -8 -7 -15 -15 -15 -8 0 -15 7 -15 15
0 8 7 15 15 15 8 0 15 -7 15 -15z m-287 -12 c-7 -2 -21 -2 -30 0 -10 3 -4 5
12 5 17 0 24 -2 18 -5z m-123 -23 c0 -5 -14 -10 -31 -10 -17 0 -28 4 -24 10 3
6 17 10 31 10 13 0 24 -4 24 -10z m-120 -20 c11 -7 2 -9 -30 -9 -37 1 -41 2
-20 9 34 11 33 11 50 0z m210 -28 c-14 -2 -28 -9 -31 -14 -10 -16 -91 -28
-112 -16 -38 20 -1 34 85 34 46 0 72 -2 58 -4z m-1477 -89 c-13 -2 -33 -2 -45
0 -13 2 -3 4 22 4 25 0 35 -2 23 -4z"/>
<path d="M5710 10584 c-25 -2 -103 -9 -175 -14 -71 -6 -157 -15 -190 -21 -33
-5 -89 -14 -125 -20 -212 -32 -534 -114 -655 -165 -16 -7 -50 -17 -74 -24 -24
-6 -51 -15 -60 -20 -9 -5 -32 -15 -51 -23 -19 -9 -60 -26 -90 -40 -108 -48
-153 -67 -161 -67 -4 0 -54 -26 -111 -58 -57 -32 -132 -75 -168 -94 -36 -20
-79 -44 -97 -54 -80 -47 -344 -239 -351 -256 -2 -5 -10 -8 -18 -8 -8 0 -14 -4
-14 -8 0 -4 -14 -16 -31 -26 -18 -10 -53 -40 -79 -65 -27 -26 -64 -60 -84 -75
-20 -15 -49 -39 -64 -53 -15 -14 -36 -33 -47 -42 -38 -32 -261 -266 -305 -320
-25 -30 -58 -70 -75 -88 -37 -40 -41 -45 -90 -113 -22 -30 -42 -57 -45 -60 -3
-3 -23 -30 -45 -60 -22 -30 -42 -57 -45 -60 -5 -5 -182 -273 -207 -315 -7 -11
-20 -36 -30 -55 -9 -19 -31 -57 -48 -85 -17 -27 -37 -63 -44 -80 -7 -16 -20
-42 -27 -56 -52 -101 -78 -158 -145 -324 -220 -548 -321 -1073 -322 -1665 0
-290 32 -617 84 -860 12 -52 25 -113 29 -135 15 -69 100 -355 137 -460 60
-172 183 -449 251 -570 19 -33 50 -89 70 -125 19 -36 46 -85 59 -110 37 -66
165 -255 228 -335 30 -38 83 -108 117 -155 34 -47 65 -87 68 -90 3 -3 39 -45
80 -95 213 -257 582 -584 875 -777 530 -348 1048 -557 1641 -663 314 -57 658
-80 947 -65 111 6 209 13 217 15 8 2 70 11 136 19 315 40 670 133 939 246 11
4 49 19 85 33 97 38 372 172 480 235 354 206 653 436 941 722 189 189 321 340
455 525 99 136 284 416 284 430 0 3 11 22 23 43 48 75 185 355 228 465 11 28
28 69 38 91 10 23 25 59 32 81 7 22 16 45 19 50 4 6 12 30 19 55 7 25 19 63
27 85 8 23 14 48 14 58 0 9 4 25 9 35 5 9 17 44 26 77 9 33 21 70 26 83 5 13
9 36 9 53 0 16 4 37 9 47 8 15 25 84 46 187 17 79 27 149 35 243 5 57 14 110
20 117 7 9 11 147 13 432 1 358 -1 437 -17 548 -10 72 -22 157 -27 190 -4 33
-12 80 -17 105 -6 25 -15 68 -20 95 -29 136 -87 355 -112 420 -5 11 -21 58
-36 105 -15 47 -31 89 -36 94 -4 6 -8 16 -8 24 0 7 -12 39 -26 70 -32 71 -45
100 -79 182 -15 36 -31 74 -36 85 -5 11 -27 52 -49 90 -23 39 -44 78 -47 88
-3 9 -9 17 -14 17 -5 0 -9 5 -9 12 0 6 -7 19 -15 28 -9 10 -31 47 -50 84 -18
36 -43 79 -54 95 -12 16 -21 34 -21 40 0 6 -7 11 -15 11 -8 0 -15 5 -15 11 0
6 -6 17 -12 24 -30 33 -38 45 -38 55 0 5 -4 10 -10 10 -5 0 -10 4 -10 9 0 5
-9 20 -20 33 -17 19 -149 187 -220 280 -11 14 -20 31 -20 37 0 6 -4 11 -10 11
-5 0 -10 6 -10 13 0 8 -10 19 -22 26 -13 7 -38 31 -55 54 -18 23 -60 71 -93
106 -33 35 -60 68 -60 73 0 8 -44 60 -74 86 -10 10 -38 35 -61 57 -36 35 -106
97 -194 172 -14 13 -29 23 -33 23 -4 0 -25 18 -47 39 -22 22 -60 53 -85 70
-24 17 -50 37 -58 44 -14 14 -187 129 -203 136 -5 2 -12 7 -15 11 -11 15 -210
122 -395 213 -215 106 -275 133 -385 172 -41 15 -84 31 -95 35 -11 5 -45 17
-75 26 -30 9 -75 23 -100 31 -25 9 -58 19 -75 23 -16 5 -55 16 -85 25 -30 9
-75 20 -100 25 -25 5 -65 14 -90 20 -149 34 -283 55 -443 70 -59 5 -112 12
-117 15 -10 6 -566 15 -630 9z m484 -2055 c7 -8 20 -32 29 -54 13 -34 112
-251 239 -525 16 -36 50 -110 75 -165 25 -55 67 -147 95 -205 65 -136 108
-229 108 -235 0 -3 25 -58 56 -123 31 -64 74 -155 96 -202 21 -47 50 -107 64
-133 13 -27 24 -54 24 -61 0 -7 -29 -64 -65 -126 -35 -63 -75 -138 -87 -167
-13 -29 -26 -53 -29 -53 -11 0 -24 22 -54 90 -34 79 -68 154 -130 285 -25 55
-53 116 -62 135 -8 19 -35 76 -58 125 -24 50 -52 110 -63 135 -68 155 -100
225 -138 308 -24 51 -44 94 -44 97 0 2 -24 55 -53 117 -29 62 -64 137 -78 167
-57 128 -74 156 -97 159 -14 2 -24 -3 -28 -15 -9 -28 -20 -53 -47 -113 -46
-99 -87 -191 -87 -195 0 -3 -31 -71 -107 -235 -19 -41 -42 -91 -50 -110 -8
-19 -23 -51 -33 -70 -10 -19 -27 -57 -38 -85 -11 -27 -41 -95 -67 -150 -55
-116 -103 -219 -135 -290 -65 -140 -89 -194 -105 -230 -28 -63 -95 -207 -203
-435 -16 -36 -38 -85 -48 -110 -10 -25 -39 -88 -64 -140 -26 -52 -57 -122 -70
-155 -13 -33 -48 -108 -76 -166 -29 -59 -74 -156 -100 -215 -25 -60 -71 -161
-102 -224 -30 -63 -68 -144 -84 -180 -16 -36 -35 -78 -43 -95 -7 -16 -20 -46
-29 -65 -8 -19 -49 -106 -90 -193 -42 -87 -76 -160 -76 -163 0 -2 -36 -78 -80
-168 -43 -90 -89 -187 -100 -215 -11 -29 -44 -98 -73 -154 -29 -56 -65 -132
-81 -169 -15 -38 -32 -68 -38 -68 -14 0 -258 122 -264 132 -8 12 6 46 85 208
37 74 77 160 90 190 13 30 37 82 54 115 16 33 67 141 112 240 46 99 108 234
140 300 31 66 64 136 72 155 9 19 45 96 80 170 36 74 79 169 96 210 17 41 58
129 90 195 77 156 127 272 127 295 0 10 -6 22 -12 27 -7 4 -458 10 -1003 13
l-990 5 -1 145 c-1 98 2 147 10 152 6 5 491 8 1079 8 587 -1 1072 2 1078 5 10
7 82 153 169 345 28 63 70 153 92 200 22 47 65 139 95 205 30 66 68 147 83
180 16 33 48 105 73 160 25 55 65 143 90 195 24 52 68 147 97 210 29 63 68
149 87 190 119 255 252 555 255 575 4 25 40 30 206 29 92 -1 127 -5 136 -15z
m-2173 -168 c135 -254 292 -548 309 -576 9 -16 46 -84 80 -150 35 -66 66 -124
70 -130 4 -5 35 -64 70 -130 35 -66 83 -155 106 -197 24 -42 77 -141 118 -220
l75 -143 -24 -45 c-12 -25 -31 -63 -40 -85 -10 -22 -31 -67 -46 -99 -16 -33
-29 -63 -29 -68 0 -5 -7 -19 -16 -33 -15 -23 -16 -23 -61 63 -107 204 -147
280 -173 327 -15 28 -60 111 -100 185 -113 210 -151 281 -180 335 -134 248
-418 782 -461 868 l-41 81 26 21 c14 11 63 39 109 62 46 24 92 52 103 64 l19
21 15 -23 c8 -12 40 -70 71 -128z m4229 72 c71 -38 132 -75 135 -83 4 -8 -1
-20 -9 -26 -9 -6 -23 -29 -32 -50 -9 -21 -33 -68 -54 -104 -21 -36 -71 -130
-112 -210 -41 -80 -84 -161 -96 -180 -20 -34 -91 -166 -152 -285 -17 -33 -42
-80 -56 -105 -14 -25 -55 -101 -91 -170 -36 -69 -69 -129 -73 -135 -4 -5 -47
-86 -94 -178 -48 -93 -97 -185 -110 -206 -13 -20 -39 -68 -58 -107 -51 -101
-140 -270 -182 -342 -20 -35 -36 -69 -36 -76 0 -7 -4 -16 -9 -22 -11 -12 -48
-79 -124 -224 -33 -63 -63 -119 -67 -125 -5 -5 -45 -82 -91 -170 -45 -88 -85
-165 -90 -170 -4 -6 -31 -55 -60 -110 -133 -258 -168 -323 -189 -360 -13 -22
-56 -103 -95 -180 -40 -77 -91 -174 -113 -215 -22 -41 -75 -143 -118 -226
l-77 -150 -163 1 c-130 1 -167 4 -178 15 -8 8 -49 83 -91 165 -43 83 -81 155
-85 160 -4 6 -28 48 -52 95 -25 47 -96 180 -158 295 -62 116 -135 253 -163
305 -27 52 -61 115 -75 140 -96 176 -114 215 -108 243 3 16 33 85 66 154 35
73 60 139 60 158 0 71 13 57 99 -103 148 -275 213 -397 278 -522 39 -74 81
-153 93 -175 56 -99 133 -240 195 -360 85 -162 93 -175 114 -175 19 0 72 82
136 210 26 52 62 120 79 150 18 30 75 136 126 235 51 99 103 196 115 215 11
19 45 82 74 140 30 58 82 157 116 220 34 63 97 183 140 265 43 83 90 173 105
200 15 28 40 73 55 100 15 28 75 140 133 250 57 110 108 205 112 210 5 6 37
66 72 135 57 109 238 449 318 595 15 28 58 109 95 180 37 72 75 144 85 160 9
17 47 86 83 155 36 69 84 159 106 200 53 96 121 237 121 250 0 18 18 11 150
-57z m-2062 -2020 c30 -15 69 -41 86 -59 67 -69 109 -191 91 -261 -6 -25 -10
-18 -30 54 -26 95 -50 137 -106 188 -41 37 -116 75 -148 75 -18 0 -41 18 -41
33 0 17 91 -2 148 -30z m3227 -321 l0 -153 -996 1 c-885 0 -998 -1 -1009 -15
-13 -16 -14 -15 135 -330 29 -60 62 -131 73 -156 12 -25 47 -100 78 -165 53
-113 81 -172 152 -324 16 -36 57 -123 91 -193 34 -71 61 -130 61 -132 0 -3 34
-75 75 -161 41 -86 75 -158 75 -161 0 -2 36 -79 80 -170 44 -91 80 -167 80
-169 0 -2 14 -32 30 -66 37 -76 37 -88 4 -88 -14 0 -75 -25 -136 -55 -60 -30
-113 -55 -117 -55 -4 0 -27 42 -51 93 -24 50 -71 151 -105 222 -34 72 -78 164
-98 205 -19 41 -59 125 -87 185 -29 61 -64 135 -78 165 -58 127 -83 182 -141
303 -34 71 -61 130 -61 132 0 2 -27 60 -60 130 -33 70 -60 128 -60 130 0 2
-36 80 -80 173 -44 93 -80 181 -80 194 0 22 25 77 83 181 123 219 200 367 216
410 l11 27 957 -2 958 -3 0 -153z"/>
<path d="M1411 7554 c0 -11 3 -14 6 -6 3 7 2 16 -1 19 -3 4 -6 -2 -5 -13z"/>
<path d="M1341 7304 c0 -11 3 -14 6 -6 3 7 2 16 -1 19 -3 4 -6 -2 -5 -13z"/>
<path d="M1310 7174 c0 -21 4 -33 10 -29 6 3 10 19 10 36 0 16 -4 29 -10 29
-5 0 -10 -16 -10 -36z"/>
<path d="M9791 3894 c0 -11 3 -14 6 -6 3 7 2 16 -1 19 -3 4 -6 -2 -5 -13z"/>
<path d="M9850 3830 c0 -5 5 -10 10 -10 6 0 10 5 10 10 0 6 -4 10 -10 10 -5 0
-10 -4 -10 -10z"/>
<path d="M9930 3692 c0 -6 -6 -17 -12 -24 -21 -21 -42 -67 -35 -75 4 -3 7 1 7
11 0 9 4 15 8 12 10 -6 47 73 38 81 -3 4 -6 1 -6 -5z"/>
<path d="M9651 3674 c0 -11 3 -14 6 -6 3 7 2 16 -1 19 -3 4 -6 -2 -5 -13z"/>
<path d="M9600 3600 c0 -5 5 -10 11 -10 5 0 7 5 4 10 -3 6 -8 10 -11 10 -2 0
-4 -4 -4 -10z"/>
<path d="M9670 3595 c0 -9 6 -12 15 -9 8 4 12 10 9 15 -8 14 -24 10 -24 -6z"/>
<path d="M9735 3355 c-5 -11 -17 -26 -27 -33 -18 -13 -25 -52 -10 -52 14 0 32
23 32 41 0 10 5 19 11 21 6 2 9 13 7 23 -5 20 -5 20 -13 0z"/>
<path d="M9570 3320 c0 -5 5 -10 10 -10 6 0 10 5 10 10 0 6 -4 10 -10 10 -5 0
-10 -4 -10 -10z"/>
<path d="M9760 3285 c0 -8 2 -15 4 -15 2 0 6 7 10 15 3 8 1 15 -4 15 -6 0 -10
-7 -10 -15z"/>
<path d="M9520 3259 c-13 -8 -13 -11 3 -20 14 -8 15 -14 7 -24 -8 -9 -8 -15 0
-20 5 -3 10 1 10 9 0 9 8 16 17 16 15 0 15 1 1 13 -9 6 -17 17 -19 24 -3 9 -9
9 -19 2z"/>
<path d="M9570 3250 c0 -5 5 -10 10 -10 6 0 10 5 10 10 0 6 -4 10 -10 10 -5 0
-10 -4 -10 -10z"/>
<path d="M9640 3209 c0 -11 5 -17 10 -14 6 3 10 13 10 21 0 8 -4 14 -10 14 -5
0 -10 -9 -10 -21z"/>
<path d="M6580 1620 c-22 -7 -21 -8 12 -9 20 -1 40 4 43 9 7 12 -19 12 -55 0z"/>
<path d="M6518 1613 c7 -3 16 -2 19 1 4 3 -2 6 -13 5 -11 0 -14 -3 -6 -6z"/>
<path d="M5395 1480 c-3 -4 4 -10 15 -13 11 -3 22 -2 25 3 3 4 -4 10 -15 13
-11 3 -22 2 -25 -3z"/>
<path d="M5610 1450 c0 -13 40 -13 60 0 11 7 5 10 -22 10 -21 0 -38 -4 -38
-10z"/>
</g>
</svg>
